<svg xmlns="http://www.w3.org/2000/svg" viewBox="0 0 600 210"><rect width="600" height="210" rx="24" fill="#fff"/><text x="38" y="132" font-family="Arial,Helvetica,sans-serif" font-size="108" font-weight="900" font-style="italic" fill="#14568d">USS</text><circle cx="80" cy="53" r="18" fill="#e2212a"/><path d="M80 13a40 40 0 0 1 40 40h-17a23 23 0 0 0-23-23V13Zm0 80a40 40 0 0 1-40-40h17a23 23 0 0 0 23 23v17ZM40 53A40 40 0 0 1 80 13v17a23 23 0 0 0-23 23H40Zm80 0a40 40 0 0 1-40 40V76a23 23 0 0 0 23-23h17Z" fill="#14568d"/><text x="40" y="182" font-family="Arial,Helvetica,sans-serif" font-size="26" font-weight="700" fill="#60666b">The Electronic Security Professionals</text></svg>